<svg xmlns="http://www.w3.org/2000/svg" xmlns:xlink="http://www.w3.org/1999/xlink" width="117" height="104"><path fill="#26B99A" d="M50 4c27.614 0 50 22.386 50 50 0 27.613-22.386 50-50 50S0 81.613 0 54C0 26.386 22.386 4 50 4z"/><path fill="#fff" d="M81.31 43.34L45.44 79.207c-.73.73-1.923.73-2.65 0L22.504 58.71c-.362-.366-.556-1.374-.556-1.86 0-.483.194-.946.556-1.314l5.404-4.87c.366-.376.855-.556 1.338-.55.476 0 .95.184 1.313.55l12.23 12.477c.728.743 1.92.743 2.65 0l27.92-27.835c.727-.737 1.92-.737 2.646 0l5.302 5.354c.732.734.732 1.942 0 2.677z"/><circle cx="84.625" cy="33" r="26" opacity=".15"/><path fill="#26B99A" d="M88 56.5c-15.164 0-27.5-12.337-27.5-27.5S72.836 1.5 88 1.5c15.163 0 27.5 12.336 27.5 27.5 0 15.163-12.337 27.5-27.5 27.5z"/><path fill="#ECF0F1" d="M88 3c14.336 0 26 11.663 26 26s-11.664 26-26 26c-14.337 0-26-11.664-26-26S73.663 3 88 3m0-3C71.983 0 59 12.984 59 29c0 16.017 12.984 29 29 29s29-12.984 29-29S104.016 0 88 0z"/><defs><path id="a" d="M114 29c0 14.36-11.64 26-25.998 26C73.64 55 62 43.36 62 29S73.64 3 88.002 3C102.36 3 114 14.64 114 29z"/></defs><clipPath id="b"><use xlink:href="#a" overflow="visible"/></clipPath><path clip-path="url(#b)" fill="#fff" d="M107.314 30.594l-81.09 81.092c-1.654 1.654-4.35 1.654-5.995 0L8.24 99.59c-1.644-1.675-4.348-4.392-5.993-6.064l-27.886-29.303c-.818-.828-1.257-1.982-1.257-3.082 0-1.093.44-2.14 1.257-2.973l12.218-11.01c.827-.85 1.935-1.257 3.025-1.246 1.075.005 2.15.418 2.97 1.247L20.228 75.37c1.644 1.683 4.34 1.683 5.993 0l63.12-62.932c1.645-1.666 4.34-1.666 5.985 0l11.986 12.102c1.655 1.66 1.655 4.393 0 6.054z"/></svg>