<svg xmlns="http://www.w3.org/2000/svg" width="722.742" height="58.815" viewBox="7.291 1.748 722.742 58.815"><g fill="#2A3F52"><path d="M11.502 16.96c0-8.426 5.616-11.468 13.338-11.468 7.8 0 13.7 5.1 15.9 12.17h3.278V2.995h-3.744V8.77C36.294 4.245 30.6 1.75 24.75 1.75 15.08 1.75 7.28 6.507 7.28 16.803c0 20.4 36 11.1 36 28.2 0 8.033-7.255 11.777-14.43 11.777-9.986 0-17.474-7.8-17.474-16.612H7.602v19.11h3.744v-7.255h.156c3.9 5.5 10.1 8.5 17 8.502 9.205 0 18.955-4.914 18.955-15.21C47.46 24.5 11.5 32.3 11.5 16.958zM72.652 56.584c-7.722 0-14.898-5.46-14.898-14.898 0-9.985 7.177-15.055 14.665-15.055 5.928 0 10.4 3.5 11.9 9.128h3.196V23.902h-3.51v4.056c-3.51-3.198-7.332-4.836-11.7-4.836-11.077 0-18.487 8.268-18.487 18.486 0 11.5 7.7 18.5 18 18.486 6.785 0 12.87-3.197 16.145-8.19l-2.73-2.185C82.325 53.5 77.9 56.6 72.7 56.583zM131.78 37.24c0-8.19-1.327-14.118-12.48-14.118-4.837 0-10.22 2.652-13.808 7.566h-.156V2.996H95.118v3.51h6.318v49.3h-6.318v3.51h16.224v-3.51h-6.006V35.29c1.95-4.212 7.8-8.66 13.962-8.66 6.084 0 8.6 2.4 8.6 10.3V55.81h-6.162v3.51h16.225v-3.51h-6.16V37.24zM162.666 23.12c-11.077 0-19.267 8.114-19.267 18.644-.08 10.5 8.1 18.3 19.3 18.3s19.344-7.8 19.344-18.33S173.82 23.1 162.7 23.12zm.155 33.464c-8.89 0-15.52-5.85-15.52-14.82s6.63-15.133 15.366-15.133c8.892 0 15.4 6.2 15.4 15.134.044 8.936-6.466 14.836-15.266 14.82zM198.5 3h-10.6v3.5h6.7v49.3h-6.7v3.5h17.2v-3.5h-6.6M243.786 30.3h-.156c-3.51-4.68-9.127-7.177-14.587-7.177-10.92 0-18.486 9.438-18.486 17.9 0 12.1 8.9 19 18.5 19.033 4.135 0 10.14-1.873 14.743-7.02v6.24h9.907v-3.51H247.7V27.413h6.007v-3.51H243.8V30.3zm-14.743 26.284c-8.97 0-14.586-6.865-14.586-15.68 0-7.332 6.163-14.274 14.586-14.274 8.97 0 14.6 6.7 14.6 14.3C243.63 50.7 236.9 56.6 229 56.584zM279.976 23.12c-3.82 0-7.176 2.185-8.736 4.993h-.154V23.9h-10.22v3.51h6.397v28.395h-6.474v3.51h16.69v-3.51h-6.317V38.8c0-4.992 2.262-12.17 7.956-12.17 3.665 0 4.6 1.6 4.6 4.136h3.9c0-4.566-2.82-7.666-7.62-7.645zM342.688 1.748c-16.693 0-29.563 13.104-29.563 29.407 0 16.3 12.9 29.4 29.6 29.4s29.563-13.104 29.563-29.407S359.38 1.7 342.7 1.748zm0 52.106c-10.374 0-22.152-7.8-22.152-22.7 0-14.897 11.777-22.698 22.152-22.698s22.154 7.8 22.2 22.7C364.842 46.1 353.1 53.9 342.7 53.853zM415.617 32.95c0-6.865-5.382-10.453-11.076-10.453-4.445 0-9.982 3.042-12.87 6.24v-5.46h-12.714v5.226h6.006v25.585h-6.006v5.227H397.6v-5.227h-5.93V34.12c3.59-3.354 7.1-6.007 12.247-6.007 3.198 0 5 2.7 5 6.5v19.5h-6.162v5.227h18.408v-5.227h-5.538V32.95zM465.77 43.557c0-11.857-7.642-21.06-18.952-21.06-10.453 0-19.033 8.19-19.033 19 0 10.8 8.6 18.6 18.6 18.642 8.348 0 16.694-4.37 18.644-11.233h-6.63c-2.108 3.588-6.476 5.928-11.937 5.9-5.54 0-11.31-4.21-11.935-11.23v-.002h31.243zm-19.03-15.755c6.316 0 12.3 4.8 12.3 10.53h-24.57c.646-5.832 6.13-10.532 12.23-10.53zM480.434 16.49c0-4.524 3.744-8.346 10.922-8.346 6.63 0 12.2 4.8 13.3 11.39h6.24V2.995h-6.085v4.76c-4.21-4.136-8.188-6.008-14.116-6.008-9.36 0-17.316 4.76-17.316 14.977 0 21.4 33.9 11.9 33.9 27.7 0 6.396-6.084 9.75-11.935 9.75-8.346 0-14.353-5.85-15.756-13.963h-6.007v19.11h6.085v-4.68c5.692 4.4 10.1 5.9 17.2 5.928 9.438 0 17.473-6.864 17.473-16.614C514.288 21.4 480.4 30 480.4 16.49zM559.293 43.557c0-11.857-7.643-21.06-18.954-21.06-10.454 0-19.034 8.19-19.034 19 0 10.8 8.6 18.6 18.6 18.642 8.347 0 16.694-4.37 18.643-11.233h-6.63c-2.107 3.588-6.475 5.928-11.936 5.9-5.54 0-11.312-4.21-11.936-11.23v-.002h31.245zM540.26 27.802c6.318 0 12.3 4.8 12.3 10.53h-24.57c.647-5.832 6.11-10.532 12.31-10.53zM596.264 28.737h-.232c-2.496-3.588-7.645-6.24-12.247-6.24-11.154 0-17.862 8.19-17.862 18.7 0 10.5 6.7 18.9 17.9 18.877 4.602 0 9.75-2.573 12.247-6.24h.232v5.46h12.014V54.07h-6.084V28.503h6.084v-5.226h-12.014v5.46zM584.41 54.79c-8.192 0-11.78-6.63-11.78-13.572 0-6.707 3.59-13.416 11.78-13.416 5.848 0 11.7 4.8 11.7 13.416 0 8.582-5.81 13.582-11.71 13.572zM628.4 30.375h-.157v-7.098H615.92v5.226h6.005v25.585h-6.006v5.227h19.422v-5.227h-6.708V41.764c0-9.126 2.574-12.56 13.65-13.34v-5.927C636.122 22.5 631 24.6 628.4 30.375zM665.294 54.79c-6.866 0-11.31-5.303-11.31-13.572 0-7.487 4.757-13.416 11.152-13.416 4.836 0 9.1 3.2 10.4 7.878h4.993V23.277h-5.33v3.9h-.156c-2.028-2.887-6.552-4.68-10.062-4.68-11.546 0-17.707 8.19-17.707 18.798 0 10.6 6.2 18.8 17.7 18.8 6.94 0 12.48-3.2 16.69-8.19l-3.977-3.59C674.42 51.8 670.3 54.8 665.3 54.79zM724.34 54.088V32.95c0-6.865-5.227-10.453-10.92-10.453-4.447 0-9.985 3.042-12.87 6.24V2.997h-12.716v5.226h6.006v45.863h-6.006v5.228h18.643V54.09h-5.928V34.12c3.587-3.354 7.097-6.007 12.245-6.007 2.964 0 4.8 2 4.8 6.476v19.5h-6.006v5.226h18.407V54.09h-5.658z"/></g></svg>